<svg width="70" height="70" viewBox="0 0 70 70" fill="none" xmlns="http://www.w3.org/2000/svg">
<circle cx="35" cy="35" r="35" fill="#006970"/>
<path fill-rule="evenodd" clip-rule="evenodd" d="M15 35.6145C15 45.8064 22.4022 54.2814 32.0833 56V41.1939H26.9583V35.5H32.0833V30.9439C32.0833 25.8189 35.3855 22.9728 40.0561 22.9728C41.5355 22.9728 43.1311 23.2 44.6105 23.4272V28.6667H41.9917C39.4855 28.6667 38.9167 29.9189 38.9167 31.5145V35.5H44.3833L43.4728 41.1939H38.9167V56C48.5978 54.2814 56 45.8081 56 35.6145C56 24.2763 46.775 15 35.5 15C24.225 15 15 24.2763 15 35.6145Z" fill="#F9ECE1"/>
</svg>
