<svg width="70" height="70" viewBox="0 0 70 70" fill="none" xmlns="http://www.w3.org/2000/svg">
<circle cx="35" cy="35" r="35" fill="#006970"/>
<path fill-rule="evenodd" clip-rule="evenodd" d="M27.9914 18.102C29.8042 18.0185 30.3822 18 35 18C39.6178 18 40.1958 18.0201 42.0071 18.102C43.8184 18.1839 45.0547 18.4729 46.1365 18.8917C47.2694 19.3198 48.2971 19.989 49.1471 20.8545C50.0125 21.7029 50.6802 22.7291 51.1067 23.8635C51.5271 24.9453 51.8145 26.1816 51.898 27.9898C51.9815 29.8057 52 30.3837 52 35C52 39.6178 51.9799 40.1958 51.898 42.0086C51.8161 43.8168 51.5271 45.0532 51.1067 46.135C50.6802 47.2695 50.0114 48.2974 49.1471 49.1471C48.2971 50.0125 47.2694 50.6802 46.1365 51.1067C45.0547 51.5271 43.8184 51.8145 42.0102 51.898C40.1958 51.9815 39.6178 52 35 52C30.3822 52 29.8042 51.9799 27.9914 51.898C26.1832 51.8161 24.9468 51.5271 23.865 51.1067C22.7305 50.6801 21.7026 50.0114 20.8529 49.1471C19.988 48.2981 19.3188 47.2707 18.8917 46.1365C18.4729 45.0547 18.1855 43.8184 18.102 42.0102C18.0185 40.1943 18 39.6163 18 35C18 30.3822 18.0201 29.8042 18.102 27.9929C18.1839 26.1816 18.4729 24.9453 18.8917 23.8635C19.3194 22.7292 19.9892 21.7018 20.8545 20.8529C21.703 19.9882 22.7298 19.319 23.8635 18.8917C24.9453 18.4729 26.1816 18.1855 27.9898 18.102H27.9914ZM41.8695 21.162C40.0768 21.0801 39.539 21.0631 35 21.0631C30.461 21.0631 29.9232 21.0801 28.1305 21.162C26.4722 21.2377 25.5727 21.5144 24.9731 21.7477C24.1803 22.0568 23.6131 22.4231 23.0181 23.0181C22.4541 23.5668 22.02 24.2348 21.7477 24.9731C21.5144 25.5727 21.2377 26.4722 21.162 28.1305C21.0801 29.9232 21.0631 30.461 21.0631 35C21.0631 39.539 21.0801 40.0768 21.162 41.8695C21.2377 43.5278 21.5144 44.4273 21.7477 45.0269C22.0197 45.7641 22.454 46.4333 23.0181 46.9819C23.5667 47.546 24.2359 47.9803 24.9731 48.2523C25.5727 48.4856 26.4722 48.7623 28.1305 48.838C29.9232 48.9199 30.4595 48.9369 35 48.9369C39.5405 48.9369 40.0768 48.9199 41.8695 48.838C43.5278 48.7623 44.4273 48.4856 45.0269 48.2523C45.8197 47.9432 46.3869 47.5769 46.9819 46.9819C47.546 46.4333 47.9803 45.7641 48.2523 45.0269C48.4856 44.4273 48.7623 43.5278 48.838 41.8695C48.9199 40.0768 48.9369 39.539 48.9369 35C48.9369 30.461 48.9199 29.9232 48.838 28.1305C48.7623 26.4722 48.4856 25.5727 48.2523 24.9731C47.9432 24.1803 47.5769 23.6131 46.9819 23.0181C46.4332 22.4541 45.7652 22.0201 45.0269 21.7477C44.4273 21.5144 43.5278 21.2377 41.8695 21.162ZM32.8286 40.2406C34.0413 40.7454 35.3916 40.8136 36.6489 40.4334C37.9062 40.0532 38.9925 39.2483 39.7223 38.1562C40.4521 37.0641 40.7801 35.7524 40.6503 34.4453C40.5204 33.1383 39.9408 31.9168 39.0105 30.9895C38.4174 30.3968 37.7002 29.943 36.9107 29.6607C36.1212 29.3784 35.2788 29.2746 34.4444 29.357C33.61 29.4393 32.8041 29.7055 32.085 30.1367C31.3658 30.5678 30.7511 31.153 30.2853 31.8501C29.8194 32.5473 29.5139 33.3391 29.3908 34.1685C29.2677 34.9979 29.33 35.8443 29.5732 36.6467C29.8164 37.4491 30.2346 38.1877 30.7975 38.8091C31.3604 39.4306 32.0541 39.9195 32.8286 40.2406ZM28.8213 28.8213C29.6327 28.0099 30.5959 27.3662 31.6561 26.9271C32.7162 26.488 33.8525 26.262 35 26.262C36.1475 26.262 37.2838 26.488 38.3439 26.9271C39.4041 27.3662 40.3673 28.0099 41.1787 28.8213C41.9901 29.6327 42.6338 30.5959 43.0729 31.6561C43.512 32.7162 43.738 33.8525 43.738 35C43.738 36.1475 43.512 37.2838 43.0729 38.3439C42.6338 39.4041 41.9901 40.3673 41.1787 41.1787C39.54 42.8174 37.3175 43.738 35 43.738C32.6825 43.738 30.46 42.8174 28.8213 41.1787C27.1826 39.54 26.262 37.3175 26.262 35C26.262 32.6825 27.1826 30.46 28.8213 28.8213ZM45.676 27.5633C45.8771 27.3736 46.038 27.1455 46.1494 26.8925C46.2607 26.6395 46.3202 26.3667 46.3242 26.0903C46.3282 25.814 46.2768 25.5396 46.1728 25.2834C46.0689 25.0273 45.9147 24.7946 45.7192 24.5992C45.5238 24.4037 45.2911 24.2494 45.0349 24.1455C44.7788 24.0416 44.5044 23.9901 44.228 23.9942C43.9516 23.9982 43.6789 24.0576 43.4259 24.169C43.1729 24.2803 42.9448 24.4413 42.7551 24.6424C42.3862 25.0334 42.1842 25.5528 42.1921 26.0903C42.1999 26.6279 42.4169 27.1412 42.7971 27.5213C43.1772 27.9014 43.6905 28.1184 44.228 28.1263C44.7655 28.1341 45.285 27.9322 45.676 27.5633Z" fill="#F9ECE1"/>
</svg>
