<svg width="70" height="70" viewBox="0 0 70 70" fill="none" xmlns="http://www.w3.org/2000/svg">
<circle cx="35" cy="35" r="35" fill="#006970"/>
<path fill-rule="evenodd" clip-rule="evenodd" d="M16 19.0912C16 18.2714 16.3257 17.4851 16.9054 16.9054C17.4851 16.3257 18.2713 16 19.0912 16H49.9054C50.3117 15.9993 50.7142 16.0788 51.0897 16.2339C51.4652 16.389 51.8065 16.6166 52.0939 16.9037C52.3814 17.1908 52.6093 17.5318 52.7648 17.9072C52.9203 18.2826 53.0002 18.6849 53 19.0912V49.9055C53.0004 50.3118 52.9208 50.7143 52.7655 51.0898C52.6102 51.4654 52.3825 51.8066 52.0952 52.094C51.8079 52.3814 51.4668 52.6094 51.0914 52.7649C50.7159 52.9203 50.3135 53.0002 49.9071 53H19.0912C18.6851 53 18.283 52.92 17.9078 52.7645C17.5327 52.6091 17.1919 52.3812 16.9048 52.094C16.6177 51.8068 16.3901 51.4658 16.2348 51.0906C16.0796 50.7154 15.9998 50.3132 16 49.9071V19.0912ZM30.6453 30.1071H35.6554V32.6231C36.3786 31.1767 38.2286 29.875 41.0086 29.875C46.3383 29.875 47.6014 32.756 47.6014 38.0419V47.8335H42.2078V39.2461C42.2078 36.2356 41.4846 34.537 39.648 34.537C37.1001 34.537 36.0405 36.3685 36.0405 39.2461V47.8335H30.6453V30.1071ZM21.3953 47.603H26.7905V29.875H21.3953V47.603ZM27.5625 24.0929C27.5727 24.5549 27.4905 25.0142 27.3207 25.4439C27.151 25.8737 26.8971 26.2652 26.574 26.5955C26.2509 26.9258 25.865 27.1883 25.4391 27.3674C25.0132 27.5466 24.5558 27.6389 24.0938 27.6389C23.6317 27.6389 23.1743 27.5466 22.7484 27.3674C22.3225 27.1883 21.9366 26.9258 21.6135 26.5955C21.2904 26.2652 21.0365 25.8737 20.8668 25.4439C20.697 25.0142 20.6148 24.5549 20.625 24.0929C20.645 23.1862 21.0192 22.3233 21.6675 21.6891C22.3159 21.0548 23.1868 20.6997 24.0938 20.6997C25.0007 20.6997 25.8716 21.0548 26.52 21.6891C27.1683 22.3233 27.5425 23.1862 27.5625 24.0929Z" fill="#F9ECE1"/>
</svg>
