<svg width="70" height="70" viewBox="0 0 70 70" fill="none" xmlns="http://www.w3.org/2000/svg">
<circle cx="35" cy="35" r="35" fill="#006970"/>
<path d="M53 23.5585C51.6393 24.1599 50.1777 24.5662 48.641 24.7499C50.2266 23.8036 51.4128 22.3144 51.9783 20.5599C50.4887 21.4424 48.8583 22.0636 47.1582 22.3965C46.0148 21.1789 44.5005 20.3719 42.8502 20.1008C41.1999 19.8296 39.5061 20.1094 38.0316 20.8968C36.5571 21.6842 35.3845 22.935 34.6958 24.4552C34.0071 25.9754 33.8409 27.6798 34.223 29.3039C31.2046 29.1527 28.2518 28.3702 25.5562 27.0072C22.8607 25.6442 20.4826 23.7311 18.5763 21.3921C17.9245 22.5135 17.5497 23.8137 17.5497 25.1984C17.549 26.445 17.8567 27.6725 18.4457 28.772C19.0347 29.8714 19.8867 30.8089 20.9261 31.5012C19.7207 31.463 18.5419 31.1381 17.4878 30.5537V30.6512C17.4876 32.3996 18.094 34.0941 19.2039 35.4474C20.3139 36.8006 21.8591 37.7291 23.5773 38.0754C22.4591 38.3773 21.2867 38.4217 20.1488 38.2054C20.6336 39.7098 21.5779 41.0253 22.8495 41.9678C24.1211 42.9103 25.6564 43.4326 27.2405 43.4615C24.5515 45.5669 21.2306 46.709 17.812 46.7039C17.2065 46.7041 16.6014 46.6688 16 46.5983C19.47 48.8236 23.5094 50.0046 27.6348 50C41.5998 50 49.2342 38.4639 49.2342 28.4587C49.2342 28.1337 49.226 27.8054 49.2114 27.4803C50.6963 26.4092 51.9781 25.0829 52.9967 23.5634L53 23.5585Z" fill="#F9ECE1"/>
</svg>
