<svg width="22" height="14" viewBox="0 0 22 14" fill="none" xmlns="http://www.w3.org/2000/svg">
<path fill-rule="evenodd" clip-rule="evenodd" d="M-2.84124e-07 6.98584C-2.92496e-07 6.78 0.0827748 6.5826 0.230115 6.43705C0.377456 6.29151 0.577293 6.20974 0.785664 6.20974L19.3163 6.20974L14.3714 1.32654C14.2238 1.18081 14.141 0.983159 14.141 0.777067C14.141 0.570973 14.2238 0.37332 14.3714 0.22759C14.5189 0.0818599 14.719 -9.27455e-06 14.9276 -9.28435e-06C15.1363 -9.29415e-06 15.3363 0.0818598 15.4839 0.22759L21.7692 6.43636C21.8423 6.50845 21.9004 6.59409 21.94 6.68838C21.9796 6.78267 22 6.88375 22 6.98583C22 7.08792 21.9796 7.189 21.94 7.28329C21.9004 7.37757 21.8423 7.46322 21.7692 7.53531L15.4839 13.7441C15.3363 13.8898 15.1363 13.9717 14.9276 13.9717C14.719 13.9717 14.5189 13.8898 14.3714 13.7441C14.2238 13.5983 14.141 13.4007 14.141 13.1946C14.141 12.9885 14.2238 12.7909 14.3714 12.6451L19.3163 7.76193L0.785664 7.76193C0.577293 7.76193 0.377456 7.68016 0.230115 7.53462C0.0827748 7.38907 -2.75752e-07 7.19167 -2.84124e-07 6.98584Z" fill="#525252"/>
</svg>
